# xmcd
#
# Track frame offsets: 
#        150
#        14337
#        31455
#        41334
#        50916
#        72882
#        84227
#        98166
#        119308
#        140348
#        168334
#        188675
#        205061
#        225339
#
# Disc length: 3184 seconds
#
# Revision: 0
# Processed by: cddbd v1.5.2PL0 Copyright (c) Steve Scherf et al.
# Submitted via: ExactAudioCopyFreeDBPlugin 1.0
#
DISCID=af0c6e0e
DTITLE=Buddy Guy - Best Of Buddy's - Blues Collection
DYEAR=2014
DGENRE=Blues
TTITLE0=Broken Hearted Blues
TTITLE1=Stone Crazy
TTITLE2=First Time I Met The Blues
TTITLE3=Slop Around
TTITLE4=Buddy Guy and Junior Wells - Blue Monday
TTITLE5=Buddy Guy and Junior Wells - Messin' With The Kid
TTITLE6=Buddy Guy and Junior Wells - Woman Blues
TTITLE7=Buddy Guy and Junior Wells - Buddy's Blues
TTITLE8=Buddy Guy and Junior Wells - Just To Be With You
TTITLE9=Buddy Guy and Junior Wells - Out Of Sight
TTITLE10=Buddy Guy and Junior Wells - Every Day I Have The Blues
TTITLE11=Buddy Guy and Junior Wells - Satisfaction
TTITLE12=Buddy Guy and Junior Wells - Junior's Shuffle
TTITLE13=Buddy Guy and Junior Wells - No Use Cryin'
EXTD=
EXTT0=
EXTT1=
EXTT2=
EXTT3=
EXTT4=
EXTT5=
EXTT6=
EXTT7=
EXTT8=
EXTT9=
EXTT10=
EXTT11=
EXTT12=
EXTT13=
PLAYORDER=
